<svg xmlns="http://www.w3.org/2000/svg" xmlns:xlink="http://www.w3.org/1999/xlink" width="19" height="19" viewBox="0 0 19 19"><defs><clipPath id="a"><rect width="19" height="19" transform="translate(14.476 19)" fill="#8dc63f"/></clipPath></defs><g transform="translate(-14.476 -19)"><g clip-path="url(#a)"><path d="M29.032,31.583a1.085,1.085,0,0,0-1.106.006L26.2,32.619a1.08,1.08,0,0,1-1.225-.074A28.006,28.006,0,0,1,22.511,30.4a28.2,28.2,0,0,1-2.145-2.462,1.082,1.082,0,0,1-.074-1.225l1.03-1.729a1.086,1.086,0,0,0,0-1.109L18.79,19.542a1.093,1.093,0,0,0-1.207-.51A3.588,3.588,0,0,0,15.9,20.041C13.948,22,12.91,25.3,20.264,32.649s10.652,6.316,12.608,4.36a3.594,3.594,0,0,0,1.01-1.683,1.088,1.088,0,0,0-.506-1.2Z" fill="#8dc63f"/></g></g></svg>