<?xml version="1.0" encoding="utf-8"?>
<!-- Generator: Adobe Illustrator 26.0.2, SVG Export Plug-In . SVG Version: 6.00 Build 0)  -->
<svg version="1.1" id="Layer_1" xmlns="http://www.w3.org/2000/svg" xmlns:xlink="http://www.w3.org/1999/xlink" x="0px" y="0px"
	 viewBox="0 0 19 19" style="enable-background:new 0 0 19 19;" xml:space="preserve">
<style type="text/css">
	.st0{fill:#8DC63F;}
</style>
<g id="logo">
	<path class="st0" d="M16.1,2.8c-3.6-3.6-9.5-3.6-13.2,0c-3,3-3.6,7.6-1.5,11.2l-1.3,4.8L5,17.6c1.4,0.7,2.9,1.1,4.4,1.1l0,0
		c5.1,0,9.3-4.2,9.3-9.3C18.8,6.9,17.8,4.6,16.1,2.8z M9.5,17.1L9.5,17.1c-1.4,0-2.7-0.4-3.9-1.1l-0.3-0.2l-2.9,0.8l0.8-2.8
		l-0.2-0.3C0.7,9.9,1.8,5.1,5.4,2.8S13.8,1.7,16,5.3c2.3,3.6,1.2,8.4-2.4,10.7C12.4,16.7,11,17.1,9.5,17.1L9.5,17.1z M13.7,11.3
		c-0.2-0.1-1.4-0.7-1.6-0.8c-0.2-0.1-0.4-0.1-0.5,0.1c-0.2,0.2-0.6,0.8-0.7,0.9s-0.3,0.2-0.5,0.1c-0.7-0.3-1.3-0.7-1.9-1.2
		c-0.5-0.5-0.9-1-1.3-1.6c-0.1-0.2,0-0.4,0.1-0.5S7.6,8.2,7.7,8c0.1-0.1,0.2-0.2,0.2-0.4C8,7.5,8,7.4,7.9,7.2C7.8,7.1,7.4,6,7.2,5.5
		C7,5,6.8,5.1,6.7,5.1c-0.1,0-0.3,0-0.4,0C6,5.1,5.7,5.2,5.6,5.4C5.4,5.6,4.8,6.2,4.8,7.3s0.8,2.2,0.9,2.4c0.1,0.2,1.6,2.5,4,3.5
		c0.4,0.2,0.9,0.3,1.3,0.5c0.5,0.1,1,0.2,1.5,0.1c0.4-0.1,1.4-0.6,1.6-1.1c0.2-0.5,0.2-1,0.1-1.1C14.1,11.5,14,11.5,13.7,11.3z"/>
</g>
</svg>
